<svg width="99" height="32" viewBox="0 0 99 32" fill="none" xmlns="http://www.w3.org/2000/svg">
<rect width="99" height="32" rx="16" fill="#FE7676"/>
<path d="M40.0938 24H37.832L29.2422 10.8516V24H26.9805V6.9375H29.2422L37.8555 20.1445V6.9375H40.0938V24ZM49.0117 24.2344C47.293 24.2344 45.8945 23.6719 44.8164 22.5469C43.7383 21.4141 43.1992 19.9023 43.1992 18.0117V17.6133C43.1992 16.3555 43.4375 15.2344 43.9141 14.25C44.3984 13.2578 45.0703 12.4844 45.9297 11.9297C46.7969 11.3672 47.7344 11.0859 48.7422 11.0859C50.3906 11.0859 51.6719 11.6289 52.5859 12.7148C53.5 13.8008 53.957 15.3555 53.957 17.3789V18.2812H45.3672C45.3984 19.5312 45.7617 20.543 46.457 21.3164C47.1602 22.082 48.0508 22.4648 49.1289 22.4648C49.8945 22.4648 50.543 22.3086 51.0742 21.9961C51.6055 21.6836 52.0703 21.2695 52.4688 20.7539L53.793 21.7852C52.7305 23.418 51.1367 24.2344 49.0117 24.2344ZM48.7422 12.8672C47.8672 12.8672 47.1328 13.1875 46.5391 13.8281C45.9453 14.4609 45.5781 15.3516 45.4375 16.5H51.7891V16.3359C51.7266 15.2344 51.4297 14.3828 50.8984 13.7812C50.3672 13.1719 49.6484 12.8672 48.7422 12.8672ZM60.7305 15.9492L63.543 11.3203H66.0742L61.9258 17.5898L66.2031 24H63.6953L60.7656 19.2539L57.8359 24H55.3164L59.5938 17.5898L55.4453 11.3203H57.9531L60.7305 15.9492ZM71.3242 8.25V11.3203H73.6914V12.9961H71.3242V20.8594C71.3242 21.3672 71.4297 21.75 71.6406 22.0078C71.8516 22.2578 72.2109 22.3828 72.7188 22.3828C72.9688 22.3828 73.3125 22.3359 73.75 22.2422V24C73.1797 24.1562 72.625 24.2344 72.0859 24.2344C71.1172 24.2344 70.3867 23.9414 69.8945 23.3555C69.4023 22.7695 69.1562 21.9375 69.1562 20.8594V12.9961H66.8477V11.3203H69.1562V8.25H71.3242Z" fill="white"/>
</svg>
