<svg width="140" height="32" viewBox="0 0 140 32" fill="none" xmlns="http://www.w3.org/2000/svg">
<rect width="140" height="32" rx="16" fill="#FE7676"/>
<path d="M28.2305 17.3203V24H25.9805V6.9375H32.2734C34.1406 6.9375 35.6016 7.41406 36.6562 8.36719C37.7188 9.32031 38.25 10.582 38.25 12.1523C38.25 13.8086 37.7305 15.0859 36.6914 15.9844C35.6602 16.875 34.1797 17.3203 32.25 17.3203H28.2305ZM28.2305 15.4805H32.2734C33.4766 15.4805 34.3984 15.1992 35.0391 14.6367C35.6797 14.0664 36 13.2461 36 12.1758C36 11.1602 35.6797 10.3477 35.0391 9.73828C34.3984 9.12891 33.5195 8.8125 32.4023 8.78906H28.2305V15.4805ZM46.9102 13.2656C46.582 13.2109 46.2266 13.1836 45.8438 13.1836C44.4219 13.1836 43.457 13.7891 42.9492 15V24H40.7812V11.3203H42.8906L42.9258 12.7852C43.6367 11.6523 44.6445 11.0859 45.9492 11.0859C46.3711 11.0859 46.6914 11.1406 46.9102 11.25V13.2656ZM53.9414 24.2344C52.2227 24.2344 50.8242 23.6719 49.7461 22.5469C48.668 21.4141 48.1289 19.9023 48.1289 18.0117V17.6133C48.1289 16.3555 48.3672 15.2344 48.8438 14.25C49.3281 13.2578 50 12.4844 50.8594 11.9297C51.7266 11.3672 52.6641 11.0859 53.6719 11.0859C55.3203 11.0859 56.6016 11.6289 57.5156 12.7148C58.4297 13.8008 58.8867 15.3555 58.8867 17.3789V18.2812H50.2969C50.3281 19.5312 50.6914 20.543 51.3867 21.3164C52.0898 22.082 52.9805 22.4648 54.0586 22.4648C54.8242 22.4648 55.4727 22.3086 56.0039 21.9961C56.5352 21.6836 57 21.2695 57.3984 20.7539L58.7227 21.7852C57.6602 23.418 56.0664 24.2344 53.9414 24.2344ZM53.6719 12.8672C52.7969 12.8672 52.0625 13.1875 51.4688 13.8281C50.875 14.4609 50.5078 15.3516 50.3672 16.5H56.7188V16.3359C56.6562 15.2344 56.3594 14.3828 55.8281 13.7812C55.2969 13.1719 54.5781 12.8672 53.6719 12.8672ZM65.4258 21.0586L68.5664 11.3203H70.7812L66.2344 24H64.582L59.9883 11.3203H62.2031L65.4258 21.0586ZM75.2227 24H73.0547V11.3203H75.2227V24ZM72.8789 7.95703C72.8789 7.60547 72.9844 7.30859 73.1953 7.06641C73.4141 6.82422 73.7344 6.70312 74.1562 6.70312C74.5781 6.70312 74.8984 6.82422 75.1172 7.06641C75.3359 7.30859 75.4453 7.60547 75.4453 7.95703C75.4453 8.30859 75.3359 8.60156 75.1172 8.83594C74.8984 9.07031 74.5781 9.1875 74.1562 9.1875C73.7344 9.1875 73.4141 9.07031 73.1953 8.83594C72.9844 8.60156 72.8789 8.30859 72.8789 7.95703ZM78.1289 17.543C78.1289 16.3008 78.3711 15.1836 78.8555 14.1914C79.3477 13.1992 80.0273 12.4336 80.8945 11.8945C81.7695 11.3555 82.7656 11.0859 83.8828 11.0859C85.6094 11.0859 87.0039 11.6836 88.0664 12.8789C89.1367 14.0742 89.6719 15.6641 89.6719 17.6484V17.8008C89.6719 19.0352 89.4336 20.1445 88.957 21.1289C88.4883 22.1055 87.8125 22.8672 86.9297 23.4141C86.0547 23.9609 85.0469 24.2344 83.9062 24.2344C82.1875 24.2344 80.793 23.6367 79.7227 22.4414C78.6602 21.2461 78.1289 19.6641 78.1289 17.6953V17.543ZM80.3086 17.8008C80.3086 19.207 80.6328 20.3359 81.2812 21.1875C81.9375 22.0391 82.8125 22.4648 83.9062 22.4648C85.0078 22.4648 85.8828 22.0352 86.5312 21.1758C87.1797 20.3086 87.5039 19.0977 87.5039 17.543C87.5039 16.1523 87.1719 15.0273 86.5078 14.168C85.8516 13.3008 84.9766 12.8672 83.8828 12.8672C82.8125 12.8672 81.9492 13.293 81.293 14.1445C80.6367 14.9961 80.3086 16.2148 80.3086 17.8008ZM100.219 22.7461C99.375 23.7383 98.1367 24.2344 96.5039 24.2344C95.1523 24.2344 94.1211 23.8438 93.4102 23.0625C92.707 22.2734 92.3516 21.1094 92.3438 19.5703V11.3203H94.5117V19.5117C94.5117 21.4336 95.293 22.3945 96.8555 22.3945C98.5117 22.3945 99.6133 21.7773 100.16 20.543V11.3203H102.328V24H100.266L100.219 22.7461ZM113.016 20.6367C113.016 20.0508 112.793 19.5977 112.348 19.2773C111.91 18.9492 111.141 18.668 110.039 18.4336C108.945 18.1992 108.074 17.918 107.426 17.5898C106.785 17.2617 106.309 16.8711 105.996 16.418C105.691 15.9648 105.539 15.4258 105.539 14.8008C105.539 13.7617 105.977 12.8828 106.852 12.1641C107.734 11.4453 108.859 11.0859 110.227 11.0859C111.664 11.0859 112.828 11.457 113.719 12.1992C114.617 12.9414 115.066 13.8906 115.066 15.0469H112.887C112.887 14.4531 112.633 13.9414 112.125 13.5117C111.625 13.082 110.992 12.8672 110.227 12.8672C109.438 12.8672 108.82 13.0391 108.375 13.3828C107.93 13.7266 107.707 14.1758 107.707 14.7305C107.707 15.2539 107.914 15.6484 108.328 15.9141C108.742 16.1797 109.488 16.4336 110.566 16.6758C111.652 16.918 112.531 17.207 113.203 17.543C113.875 17.8789 114.371 18.2852 114.691 18.7617C115.02 19.2305 115.184 19.8047 115.184 20.4844C115.184 21.6172 114.73 22.5273 113.824 23.2148C112.918 23.8945 111.742 24.2344 110.297 24.2344C109.281 24.2344 108.383 24.0547 107.602 23.6953C106.82 23.3359 106.207 22.8359 105.762 22.1953C105.324 21.5469 105.105 20.8477 105.105 20.0977H107.273C107.312 20.8242 107.602 21.4023 108.141 21.832C108.688 22.2539 109.406 22.4648 110.297 22.4648C111.117 22.4648 111.773 22.3008 112.266 21.9727C112.766 21.6367 113.016 21.1914 113.016 20.6367Z" fill="white"/>
</svg>
